<?xml version="1.0" encoding="UTF-8"?>
<!DOCTYPE svg PUBLIC "-//W3C//DTD SVG 1.1//EN" "http://www.w3.org/Graphics/SVG/1.1/DTD/svg11.dtd">
<!-- Creator: CorelDRAW X7 -->
<svg xmlns="http://www.w3.org/2000/svg" xml:space="preserve" width="2.64692in" height="0.715346in" version="1.1" style="shape-rendering:geometricPrecision; text-rendering:geometricPrecision; image-rendering:optimizeQuality; fill-rule:evenodd; clip-rule:evenodd"
viewBox="0 0 1025 277"
 xmlns:xlink="http://www.w3.org/1999/xlink">
 <defs>
  <style type="text/css">
   <![CDATA[
    .fil0 {fill:#D81F26}
   ]]>
  </style>
 </defs>
 <g id="Layer_x0020_1">
  <metadata id="CorelCorpID_0Corel-Layer"/>
  <path class="fil0" d="M141 259c-15,3 -31,4 -47,6l-50 -145 0 151c-15,2 -29,4 -44,6l0 -277 41 0 56 157 0 -157 44 0 0 259zm85 -158c17,0 43,0 58,0l0 43c-19,0 -42,0 -58,1l0 64c26,-1 51,-4 77,-4l0 41 -120 10 0 -256 120 0 0 43 -77 0 0 58zm238 -58l-45 0 0 199c-15,0 -29,0 -43,1l0 -200 -45 0 0 -43 133 0 0 43 0 0zm70 55l59 0 0 44 -59 0 0 98 -42 0 0 -240 121 0 0 43 -79 0 0 55zm149 104c25,1 49,3 74,4l0 43c-39,-3 -78,-5 -117,-6l0 -243 43 0 0 202 0 0zm110 50c14,0 28,1 43,3l0 -255 -43 0 0 252 0 0zm232 -252l-55 132 55 145c-16,-2 -32,-5 -49,-8l-31 -80 -31 74c-16,-3 -31,-4 -47,-6l56 -127 -50 -130 46 0 29 73 30 -73 47 0z"/>
 </g>
</svg>
